<svg width="820" height="240" viewBox="0 0 820 240" fill="none" xmlns="http://www.w3.org/2000/svg">
  <!-- Background -->
  <rect width="820" height="240" rx="32" fill="#FFE39E" stroke="#222" stroke-width="8"/>
  <!-- Cartoon flames with thick outlines -->
  <g>
    <path d="M0,220 Q40,160 80,220 T160,220 T240,220 T320,220 T400,220 T480,220 T560,220 T640,220 T720,220 T820,220 V240 H0 Z"
      fill="#FF7F2E" stroke="#222" stroke-width="6"/>
    <path d="M0,235 Q60,180 120,235 T240,235 T360,235 T480,235 T600,235 T720,235 T820,235 V240 H0 Z"
      fill="#FF2929" stroke="#222" stroke-width="4"/>
  </g>
  <!-- Cartoon devil character (left) -->
  <g>
    <ellipse cx="100" cy="120" rx="45" ry="54" fill="#222" stroke="#fff" stroke-width="7"/>
    <ellipse cx="85" cy="110" rx="12" ry="18" fill="#fff" stroke="#222" stroke-width="3"/>
    <ellipse cx="115" cy="110" rx="12" ry="18" fill="#fff" stroke="#222" stroke-width="3"/>
    <circle cx="85" cy="110" r="6" fill="#FF2929"/>
    <circle cx="115" cy="110" r="6" fill="#FF2929"/>
    <path d="M85 105 Q100 95 115 105" stroke="#fff" stroke-width="4" fill="none"/>
    <path d="M80,80 Q100,60 120,80" stroke="#fff" stroke-width="5" fill="none"/>
    <polygon points="70,72 80,44 90,72" fill="#fff" stroke="#222" stroke-width="3"/>
    <polygon points="130,72 140,44 150,72" fill="#fff" stroke="#222" stroke-width="3"/>
    <path d="M100 165 Q105 175 110 165" stroke="#fff" stroke-width="4" fill="none"/>
    <path d="M80,150 Q100,200 120,150" stroke="#FF7F2E" stroke-width="7" fill="none"/>
    <!-- Devil fork -->
    <g>
      <rect x="60" y="180" width="9" height="40" rx="4" fill="#222"/>
      <rect x="56" y="178" width="17" height="9" rx="4" fill="#222"/>
      <rect x="56" y="218" width="5" height="9" rx="2" fill="#222"/>
      <rect x="65" y="218" width="5" height="9" rx="2" fill="#222"/>
    </g>
  </g>
  <!-- King Dice motif (right) -->
  <g>
    <rect x="700" y="90" width="70" height="70" rx="16" fill="#FAFAFA" stroke="#222" stroke-width="7"/>
    <circle cx="720" cy="108" r="10" fill="#222"/>
    <circle cx="750" cy="138" r="10" fill="#222"/>
    <circle cx="750" cy="108" r="10" fill="#222"/>
    <circle cx="720" cy="138" r="10" fill="#222"/>
    <!-- Evil smile -->
    <path d="M715 160 Q735 174 755 160" stroke="#FF2929" stroke-width="6" fill="none"/>
  </g>
  <!-- Title in Cuphead cartoon style -->
  <text x="180" y="110" font-family="'Luckiest Guy', 'Comic Sans MS', cursive" font-size="62" fill="#272727"
        stroke="#fff" stroke-width="5" paint-order="stroke">
    Renato Manuel
  </text>
  <!-- Subtitle w/ hellish theme -->
  <text x="190" y="160" font-family="'Luckiest Guy', 'Comic Sans MS', cursive" font-size="32" fill="#FF7F2E"
        stroke="#222" stroke-width="3" paint-order="stroke">
    Software Developer · Doomed to Hell 😈
  </text>
  <!-- Cuphead cartoon stars & accents -->
  <g>
    <polygon points="200,50 210,58 220,50 210,62" fill="#fff" stroke="#222" stroke-width="2"/>
    <polygon points="280,40 290,48 300,40 290,52" fill="#fff" stroke="#222" stroke-width="2"/>
    <polygon points="360,50 370,58 380,50 370,62" fill="#fff" stroke="#222" stroke-width="2"/>
    <polygon points="440,40 450,48 460,40 450,52" fill="#fff" stroke="#222" stroke-width="2"/>
  </g>
</svg>